<?xml version="1.0" encoding="utf-8"?>
<!-- Generator: Adobe Illustrator 21.1.0, SVG Export Plug-In . SVG Version: 6.00 Build 0)  -->
<svg version="1.1" id="Capa_1" xmlns="http://www.w3.org/2000/svg" xmlns:xlink="http://www.w3.org/1999/xlink" x="0px" y="0px"
	 viewBox="0 0 512 512" style="enable-background:new 0 0 512 512;" xml:space="preserve">
<style type="text/css">
	.st0{fill:#FFFFFF;}
</style>
<g>
	<g>
		<path class="st0" d="M256,0C114.6,0,0,114.6,0,256s114.6,256,256,256s256-114.6,256-256C511.8,114.7,397.3,0.2,256,0z M267,489.5
			v-45c0-6.1-4.9-11-11-11s-11,4.9-11,11v45C124.6,483.7,28.3,387.4,22.5,267h45c6.1,0,11-4.9,11-11s-4.9-11-11-11h-45
			C28.3,124.6,124.6,28.3,245,22.5v45c0,6.1,4.9,11,11,11s11-4.9,11-11v-45C387.4,28.3,483.7,124.6,489.5,245h-45
			c-6.1,0-11,4.9-11,11s4.9,11,11,11h0.1h45C483.8,387.4,387.4,483.8,267,489.5z"/>
	</g>
</g>
<g>
	<g>
		<path class="st0" d="M371.9,358.1L267,251.5V140.7c0-6.1-4.9-11-11-11c-6.1,0-11,4.9-11,11V256c0,2.9,1.2,5.6,3.2,7.7l108,109.8
			c4.2,4.3,11.2,4.4,15.5,0.2C376,369.4,376.1,362.5,371.9,358.1z"/>
	</g>
</g>
</svg>
